<svg id="Layer_1" data-name="Layer 1" xmlns="http://www.w3.org/2000/svg" xmlns:xlink="http://www.w3.org/1999/xlink" viewBox="0 0 800 383.57">
  <defs>
    <style>
      .cls-1 {
        fill: #375b66;
      }

      .cls-2 {
        fill: #fff;
      }

      .cls-3 {
        fill: #d1e2d8;
      }

      .cls-4 {
        fill: #f1f2f2;
      }

      .cls-5 {
        fill: #b05033;
      }

      .cls-6 {
        fill: #d1d3d4;
      }

      .cls-7 {
        fill: #e6e7e8;
      }

      .cls-8 {
        fill: #babbbd;
      }

      .cls-9 {
        fill: #6b9753;
      }

      .cls-10, .cls-9 {
        fill-opacity: 0.95;
      }

      .cls-10 {
        fill: #ccde9c;
      }

      .cls-11 {
        fill: #baa59a;
      }

      .cls-12 {
        fill: #8e7a72;
        opacity: 0.49;
      }

      .cls-12, .cls-13, .cls-15, .cls-20 {
        isolation: isolate;
      }

      .cls-13 {
        opacity: 0.77;
        fill: url(#linear-gradient);
      }

      .cls-14 {
        fill: url(#linear-gradient-2);
      }

      .cls-15 {
        opacity: 0.64;
        fill: url(#linear-gradient-3);
      }

      .cls-16 {
        fill: url(#linear-gradient-4);
      }

      .cls-17 {
        fill: url(#linear-gradient-5);
      }

      .cls-18 {
        fill: url(#linear-gradient-6);
      }

      .cls-19 {
        fill: url(#linear-gradient-7);
      }

      .cls-20 {
        opacity: 0.89;
        fill: url(#linear-gradient-8);
      }

      .cls-21 {
        fill: #4d6c3b;
      }

      .cls-22 {
        fill: #a2c5b1;
      }
    </style>
    <linearGradient id="linear-gradient" x1="393.76" y1="1489.91" x2="390.65" y2="1477.61" gradientTransform="translate(0 -1360.86)" gradientUnits="userSpaceOnUse">
      <stop offset="0" stop-color="#fcfcfc"/>
      <stop offset="1" stop-color="#e0d8c1"/>
    </linearGradient>
    <linearGradient id="linear-gradient-2" x1="409.54" y1="1450" x2="421.8" y2="1441.1" gradientTransform="translate(0 -1360.86)" gradientUnits="userSpaceOnUse">
      <stop offset="0" stop-color="#6c5852"/>
      <stop offset="1" stop-color="#6c5852" stop-opacity="0"/>
    </linearGradient>
    <linearGradient id="linear-gradient-3" x1="398.93" y1="1439.71" x2="400.52" y2="1444.04" gradientTransform="translate(0 -1360.86)" gradientUnits="userSpaceOnUse">
      <stop offset="0"/>
      <stop offset="1" stop-opacity="0"/>
    </linearGradient>
    <linearGradient id="linear-gradient-4" x1="385.3" y1="1455.35" x2="367.42" y2="1445.04" xlink:href="#linear-gradient-2"/>
    <linearGradient id="linear-gradient-5" x1="377.6" y1="1451.51" x2="391.27" y2="1459.15" xlink:href="#linear-gradient"/>
    <linearGradient id="linear-gradient-6" x1="697.39" y1="1868.03" x2="695.07" y2="1869.28" gradientTransform="translate(-125.54 -1334.14) scale(0.77)" gradientUnits="userSpaceOnUse">
      <stop offset="0" stop-color="#fcfcfc"/>
      <stop offset="1" stop-color="#c7c7c7"/>
    </linearGradient>
    <linearGradient id="linear-gradient-7" x1="418.68" y1="1474.05" x2="433.43" y2="1464.22" xlink:href="#linear-gradient-2"/>
    <linearGradient id="linear-gradient-8" x1="82.27" y1="1662.29" x2="77.52" y2="1665.92" gradientTransform="translate(-49.25 -1478.24) rotate(-13.34)" xlink:href="#linear-gradient-3"/>
  </defs>
  <title>nn</title>
  <g id="Layer_1-2" data-name="Layer 1">
    <path class="cls-1" d="M800,0c-30.52,7-55.19,30-65.27,60a72.41,72.41,0,0,0-8.06-.46c-40.85,0-74,34.17-74,76.33A78.22,78.22,0,0,0,658,164.19c-19.4,4.91-34,22.46-35.06,43.72a81.89,81.89,0,0,0-28.18-5c-38.56,0-71,26.69-81.14,63.14a51.87,51.87,0,0,0-40,6.5A39,39,0,0,0,438,248.8a38.65,38.65,0,0,0-31.44,16.37,45,45,0,0,0-12.07,3.65,39.37,39.37,0,0,0-70.06-2.17,28.86,28.86,0,0,0-35.46.85c-7.53-16-23.42-27-41.79-27a45.27,45.27,0,0,0-9.33,1c.09-1.17.15-2.34.15-3.53a45,45,0,0,0-24.51-40.35c.19-2.33.31-4.68.31-7.05,0-45.15-35.46-81.74-79.21-81.74A76.82,76.82,0,0,0,102.1,116,46.66,46.66,0,0,0,73,90.77C71.89,46.22,40.93,9.33,0,.59v383H800Z"/>
    <g>
      <path class="cls-2" d="M235.93,67.28a.79.79,0,0,1-.78-.78V61.74a.79.79,0,1,1,1.57,0V66.5A.79.79,0,0,1,235.93,67.28Z"/>
      <path class="cls-2" d="M231.74,68.7a.78.78,0,0,1-.55-.23l-3.37-3.37a.78.78,0,1,1,1.11-1.1l3.37,3.37a.78.78,0,0,1-.55,1.34Z"/>
      <path class="cls-2" d="M225,72.67a.78.78,0,1,1,0-1.57h4.76a.78.78,0,1,1,0,1.57Z"/>
      <path class="cls-2" d="M227.84,80.22a.78.78,0,0,1-.55-1.34l3.37-3.37a.78.78,0,0,1,1.11,1.11L228.4,80A.78.78,0,0,1,227.84,80.22Z"/>
      <path class="cls-2" d="M235.18,83.57a.79.79,0,0,1-.78-.78V78a.8.8,0,0,1,1.6,0v4.76a.79.79,0,0,1-.77.81Z"/>
      <path class="cls-2" d="M242.73,80.75a.78.78,0,0,1-.55-.23l-3.37-3.37A.8.8,0,1,1,239.92,76h0l3.37,3.37a.78.78,0,0,1-.55,1.34Z"/>
      <path class="cls-2" d="M241.32,73.42a.78.78,0,1,1,0-1.57h4.76a.78.78,0,1,1,0,1.57Z"/>
      <path class="cls-2" d="M239.89,69.24a.78.78,0,0,1-.55-1.34l3.37-3.37a.78.78,0,1,1,1.11,1.11h0L240.45,69A.78.78,0,0,1,239.89,69.24Z"/>
    </g>
    <path class="cls-3" d="M109.56,18.28a1,1,0,1,1,1-1A1,1,0,0,1,109.56,18.28Zm-3.84-1.58a.93.93,0,0,1-.54-.17h-.06l-.08-.07a1,1,0,0,1,.68-1.63.94.94,0,0,1,.68.28.91.91,0,0,1-.67,1.58Zm7.66,0a.86.86,0,1,1,.67-.28.92.92,0,0,1-.66.26Zm-9.25-3.82a1,1,0,1,1,1-1,1,1,0,0,1-1,1Zm10.84,0a1,1,0,1,1,1-1,1,1,0,0,1-1,1ZM105.71,9A1,1,0,0,1,105,7.39a.94.94,0,0,1,.67-.28,1,1,0,0,1,.68.28.94.94,0,0,1,.28.67,1,1,0,0,1-1,1Zm7.66,0a1,1,0,0,1-.68-1.63,1,1,0,0,1,1.35,0A1,1,0,0,1,113.38,9Zm-3.83-1.57a1,1,0,1,1,1-1A1,1,0,0,1,109.54,7.43Z"/>
    <g>
      <path class="cls-4" d="M385.8,200.69H415a8.06,8.06,0,0,0,6.5-3.35c16.55-22.56,26.75-53.21,26.75-87,0-42.1-15.81-79.34-40-102.12a11.23,11.23,0,0,0-15.62,0c-24.24,22.78-40,60-40,102.12,0,33.79,10.19,64.44,26.75,87A8.06,8.06,0,0,0,385.8,200.69Z"/>
      <path class="cls-5" d="M425.59,192.63c14.48,0,26.48,11.47,28.61,26.44a4.06,4.06,0,0,0,3.88,3.66h.58a4,4,0,0,0,3.84-3.36,90.14,90.14,0,0,0,1.56-16.73,87.23,87.23,0,0,0-19.89-56,140.18,140.18,0,0,1-19.4,46Z"/>
      <path class="cls-5" d="M375.22,192.63c-14.48,0-26.48,11.47-28.61,26.44a4.06,4.06,0,0,1-3.88,3.66h-.58a4,4,0,0,1-3.84-3.36,90.14,90.14,0,0,1-1.56-16.73,87.23,87.23,0,0,1,19.89-56,140.18,140.18,0,0,0,19.4,46Z"/>
      <path class="cls-5" d="M392.66,8.16a119.89,119.89,0,0,0-26.38,37.4h68.26a119.89,119.89,0,0,0-26.38-37.4A11.18,11.18,0,0,0,392.66,8.16Z"/>
      <ellipse class="cls-6" cx="400.42" cy="102.31" rx="39.78" ry="42.89"/>
      <ellipse class="cls-7" cx="400.42" cy="101.14" rx="39.78" ry="42.89"/>
      <path class="cls-8" d="M395.88,141.85h0a1.38,1.38,0,0,1-1.14-1.56h0a1.32,1.32,0,0,1,1.4-1.23h0a1.38,1.38,0,0,1,1.14,1.56h0a1.33,1.33,0,0,1-1.29,1.23h-.15Zm7.71-1.23a1.39,1.39,0,0,1,1.14-1.56h0a1.32,1.32,0,0,1,1.44,1.19v0h0a1.38,1.38,0,0,1-1.13,1.56h-.16a1.34,1.34,0,0,1-1.29-1.23ZM387,139.51h0a1.44,1.44,0,0,1-.76-1.81h0a1.28,1.28,0,0,1,1.61-.84l.07,0h0a1.44,1.44,0,0,1,.76,1.81h0a1.32,1.32,0,0,1-1.22.9h0A1.17,1.17,0,0,1,387,139.51Zm25.28-.84a1.44,1.44,0,0,1,.75-1.81h0a1.27,1.27,0,0,1,1.65.72l0,.09h0a1.43,1.43,0,0,1-.75,1.81h0a1.18,1.18,0,0,1-.46.09h0a1.31,1.31,0,0,1-1.25-.9Zm-33.4-3.74a1.48,1.48,0,0,1-.33-2h0a1.24,1.24,0,0,1,1.7-.43l.11.07h0a1.47,1.47,0,0,1,.33,1.95h0a1.27,1.27,0,0,1-1.07.61h0a1.27,1.27,0,0,1-.77-.21Zm41.38-.4a1.48,1.48,0,0,1,.33-2h0a1.25,1.25,0,0,1,1.75.27l.06.09h0a1.47,1.47,0,0,1-.33,1.95h0a1.24,1.24,0,0,1-.74.25h0a1.27,1.27,0,0,1-1.1-.57ZM372,128.38a1.48,1.48,0,0,1,.1-2h0a1.24,1.24,0,0,1,1.75,0l.09.1h0a1.48,1.48,0,0,1-.11,2h0a1.23,1.23,0,0,1-.86.35h0A1.23,1.23,0,0,1,372,128.38Zm55.07.06a1.48,1.48,0,0,1-.11-2h0a1.24,1.24,0,0,1,1.74-.2l.09.08h0a1.48,1.48,0,0,1,.11,2h0a1.26,1.26,0,0,1-1,.47h0a1.22,1.22,0,0,1-.84-.35Zm-60.29-8.18a1.45,1.45,0,0,1,.54-1.89h0a1.25,1.25,0,0,1,1.7.47l.06.11h0a1.47,1.47,0,0,1-.54,1.9h0a1.21,1.21,0,0,1-.6.16h0a1.28,1.28,0,0,1-1.17-.75Zm65.57.52a1.46,1.46,0,0,1-.55-1.89h0a1.26,1.26,0,0,1,1.66-.64l.1,0h0a1.46,1.46,0,0,1,.55,1.89h0a1.3,1.3,0,0,1-1.16.75h0a1.2,1.2,0,0,1-.61-.16ZM363.5,111a1.41,1.41,0,0,1,1-1.7h0a1.29,1.29,0,0,1,1.56.95v.05h0a1.4,1.4,0,0,1-1,1.7h0a1.19,1.19,0,0,1-.31,0h0A1.33,1.33,0,0,1,363.5,111Zm72.28.95a1.41,1.41,0,0,1-1-1.7h0a1.3,1.3,0,0,1,1.54-1h0a1.41,1.41,0,0,1,1,1.7h0a1.32,1.32,0,0,1-1.26,1.07h0a1.19,1.19,0,0,1-.31,0ZM362.39,101.2a1.35,1.35,0,0,1,1.29-1.4h0a1.35,1.35,0,0,1,1.31,1.39h0a1.35,1.35,0,0,1-1.3,1.4h0a1.35,1.35,0,0,1-1.3-1.38Zm73.46-.08h0V101h0v0h0a1.35,1.35,0,0,1,1.29-1.41h0a1.36,1.36,0,0,1,1.31,1.39h0a.48.48,0,0,1,0,.09h0a.29.29,0,0,1,0,.08h0a1.35,1.35,0,0,1-1.3,1.4h0a1.35,1.35,0,0,1-1.3-1.4h0Zm-71.43-8a1.41,1.41,0,0,1-1-1.69h0a1.31,1.31,0,0,1,1.56-1h0a1.41,1.41,0,0,1,1,1.69h0a1.32,1.32,0,0,1-1.26,1.07h0a1.19,1.19,0,0,1-.32-.08Zm70.38-1.25a1.41,1.41,0,0,1,.94-1.7h0a1.3,1.3,0,0,1,1.57,1v0h0a1.42,1.42,0,0,1-1,1.7h0a1.25,1.25,0,0,1-.32,0h0a1.31,1.31,0,0,1-1.26-1Zm-67.55-7.79a1.45,1.45,0,0,1-.55-1.89h0a1.25,1.25,0,0,1,1.65-.65l.11.06h0a1.46,1.46,0,0,1,.55,1.89h0a1.29,1.29,0,0,1-1.15.76h0a1.26,1.26,0,0,1-.62-.19Zm64.49-.8a1.45,1.45,0,0,1,.54-1.89h0a1.25,1.25,0,0,1,1.71.46L434,82h0a1.46,1.46,0,0,1-.53,1.9h0a1.21,1.21,0,0,1-.61.16h0a1.28,1.28,0,0,1-1.17-.76ZM372,76a1.47,1.47,0,0,1-.11-2h0a1.23,1.23,0,0,1,1.73-.22l.1.09h0a1.48,1.48,0,0,1,.12,2h0a1.27,1.27,0,0,1-1,.48h0A1.26,1.26,0,0,1,372,76Zm54.85-.29a1.49,1.49,0,0,1,.1-2h0a1.25,1.25,0,0,1,1.77,0l.07.08h0a1.49,1.49,0,0,1-.1,2h0a1.25,1.25,0,0,1-.86.36h0A1.28,1.28,0,0,1,426.85,75.71ZM378.4,69.4a1.47,1.47,0,0,1,.33-1.95h0a1.24,1.24,0,0,1,1.74.24l.07.11h0a1.48,1.48,0,0,1-.33,2h0a1.24,1.24,0,0,1-.74.25h0A1.26,1.26,0,0,1,378.4,69.4Zm42,.22a1.47,1.47,0,0,1-.33-1.95h0a1.24,1.24,0,0,1,1.7-.43l.11.07h0a1.47,1.47,0,0,1,.34,1.95h0a1.27,1.27,0,0,1-1.07.61h0a1.29,1.29,0,0,1-.71-.24Zm-34.36-5a1.43,1.43,0,0,1,.75-1.81h0a1.27,1.27,0,0,1,1.65.72l0,.09h0a1.43,1.43,0,0,1-.75,1.81h0a1.09,1.09,0,0,1-.46.1h0a1.3,1.3,0,0,1-1.18-.89Zm26.8.72a1.43,1.43,0,0,1-.76-1.8h0a1.27,1.27,0,0,1,1.58-.85l.1,0h0a1.44,1.44,0,0,1,.75,1.81h0a1.3,1.3,0,0,1-1.22.9h0a1.17,1.17,0,0,1-.42-.06ZM394.59,62a1.39,1.39,0,0,1,1.13-1.56h0a1.33,1.33,0,0,1,1.45,1.2v0h0A1.38,1.38,0,0,1,396,63.24h-.17A1.34,1.34,0,0,1,394.59,62Zm10,1.19a1.38,1.38,0,0,1-1.14-1.56h0a1.33,1.33,0,0,1,1.42-1.23h0A1.38,1.38,0,0,1,406,62h0a1.34,1.34,0,0,1-1.29,1.24h-.15Z"/>
      <g>
        <path class="cls-7" d="M373.87,43.16a1.58,1.58,0,0,1-1.14-.51,1.84,1.84,0,0,1,0-2.48,1.59,1.59,0,0,1,2.25,0l0,0a1.86,1.86,0,0,1,0,2.48A1.59,1.59,0,0,1,373.87,43.16Z"/>
        <path class="cls-7" d="M381.19,41.41a1.69,1.69,0,0,1,1.63-1.75h0a1.69,1.69,0,0,1,1.63,1.75h0a1.69,1.69,0,0,1-1.63,1.75h0a1.69,1.69,0,0,1-1.63-1.75Z"/>
        <path class="cls-7" d="M417,41.41a1.69,1.69,0,0,1,1.63-1.75h0a1.69,1.69,0,0,1,1.63,1.75h0a1.69,1.69,0,0,1-1.63,1.75h0A1.69,1.69,0,0,1,417,41.41Zm-9,0a1.69,1.69,0,0,1,1.63-1.75h0a1.69,1.69,0,0,1,1.63,1.75h0a1.69,1.69,0,0,1-1.63,1.75h0a1.69,1.69,0,0,1-1.68-1.7v-.05Zm-9,0a1.69,1.69,0,0,1,1.63-1.75h0a1.69,1.69,0,0,1,1.63,1.75h0a1.69,1.69,0,0,1-1.63,1.75h0a1.69,1.69,0,0,1-1.65-1.73v0Zm-9,0a1.69,1.69,0,0,1,1.63-1.75h0a1.69,1.69,0,0,1,1.63,1.75h0a1.69,1.69,0,0,1-1.63,1.75h0a1.69,1.69,0,0,1-1.64-1.74h0Z"/>
        <path class="cls-7" d="M427.55,43.16a1.6,1.6,0,0,1-1.15-.51,1.86,1.86,0,0,1,0-2.48,1.6,1.6,0,0,1,2.26,0l0,0a1.86,1.86,0,0,1,0,2.48A1.6,1.6,0,0,1,427.55,43.16Z"/>
      </g>
      <path class="cls-7" d="M365.71,46.8h69.41c-.19-.42-.38-.83-.58-1.24H366.29C366.1,46,365.9,46.38,365.71,46.8Z"/>
      <path class="cls-7" d="M444.17,146.67a140.18,140.18,0,0,1-19.4,46h.82a27.09,27.09,0,0,1,4.12.32,151,151,0,0,0,17.09-43Q445.52,148.3,444.17,146.67Z"/>
      <g id="layer5">
        <path id="path4187-7-9" class="cls-9" d="M401.82,73.42a30.48,30.48,0,1,0,30.61,30.48A30.48,30.48,0,0,0,401.82,73.42Z"/>
        <ellipse id="path4332-0-1" class="cls-10" cx="402.59" cy="103.13" rx="28.32" ry="28.19"/>
        <path id="path3504" class="cls-11" d="M419.55,119.05c-1.09.41-1.5,2.19-3.53,1.33-2.6,2.36-6.47,2.61-9.47,2.17-2.15-.31-3.36,0-8.82-.38.81,2.77,1.48,3.86,3.76,5.51a2.49,2.49,0,0,1-2.57.67,10.31,10.31,0,0,1,2.22,6A30.53,30.53,0,0,1,372,97c-.71-4.33.81-19.17,13.59-19,2.07,0,4.27,1.51,6.92,3.6,7,.12,11.87.34,15.46,1.64,5-1.89,9.22-1.19,7.89,8.36,2,4.42,4.32,9.1,5.94,13.34,1.1,2.87,2.07,5.43,2,7.59C423.72,117.15,422.9,117.79,419.55,119.05Z"/>
        <path id="path3504-7" class="cls-12" d="M384.74,109.37c-1.53,5.11,3.67,11.77,13,12.8.81,2.78,1.48,3.87,3.76,5.5a2.52,2.52,0,0,1-2.57.67,10.34,10.34,0,0,1,2.22,6A30.53,30.53,0,0,1,372,97C373.14,104.87,380.29,109.5,384.74,109.37Z"/>
        <path id="path3504-7-8" class="cls-13" d="M384.74,109.37c-1.53,5.11,3.67,11.77,13,12.8.81,2.79,1.48,3.87,3.76,5.5a2.47,2.47,0,0,1-2.57.67,10.35,10.35,0,0,1,2.22,6c-2.42-3.69-7.44-5.23-10.46-7.18-10.65-6.86-8.26-15-8.43-18.17A8.69,8.69,0,0,0,384.74,109.37Z"/>
        <path id="path3504-22" class="cls-14" d="M408,83.21c3.67,1.32,6,3.76,7.89,8.36C417.23,82.07,413,81.28,408,83.21Z"/>
        <path id="path3504-1" class="cls-15" d="M396.1,85.61a16.31,16.31,0,0,0-3.59-4c7,.12,11.87.34,15.46,1.64v2.37H396.1Z"/>
        <path id="path3504-9" class="cls-16" d="M374.83,96c-.92-5.28,2-14.18,9.41-14.11a8.3,8.3,0,0,1,6.24,3c1,1.19,1.62,3.37,2.15,4.29-2,4.69-.77,6.07-1.72,9.87-.71,2.85-3.88,5.4-4.73,6.9C379.22,106.74,375.67,100.88,374.83,96Z"/>
        <path id="path3504-9-6" class="cls-17" d="M380.32,91c3.46,1,4.35-1.81,8-.82-.42-1.44-1.38-2.57-2.93-2.51.88-2,5.11-2.8,6.27-.62a19.54,19.54,0,0,0,1,2.2c-2,4.69-.77,6.07-1.72,9.87-.71,2.85-3.88,5.4-4.73,6.9a9.56,9.56,0,0,1-2.16,0c-2-.29-1.4-4.83-3.47-5.25a2.39,2.39,0,0,1,3-1.22A9.66,9.66,0,0,1,380.32,91Z"/>
        <path id="path4194-2-1-8" d="M408.7,108c-1.23-.46-1.79-1.41-1.79-3,0-1,.35-1.36,1.44-1.36A2.56,2.56,0,0,1,411,106.7C410.81,108.16,410.13,108.54,408.7,108Z"/>
        <path id="path4194-2-1-7-6-5" class="cls-18" d="M409.08,106.61a1.52,1.52,0,0,1-1-1.65c0-.56.19-.74.78-.74a1.39,1.39,0,0,1,1.45,1.68C410.22,106.69,409.85,106.9,409.08,106.61Z"/>
        <path id="path3504-95" class="cls-19" d="M420.41,119.46a5.31,5.31,0,0,1-4.39.92c-1.78-4.14.55-4.14.57-8.44s4.25-9.15,5.22-7c.49,1.07,2.11,5.93,2.11,8.09A6.83,6.83,0,0,1,420.41,119.46Z"/>
        <path id="path3504-74" class="cls-20" d="M416.47,120.22c-4.68,3.28-6.87,1.93-11,2.13-4.87-6.23-.06-5.8.85-5.9C408.57,118.49,413,122.64,416.47,120.22Z"/>
        <path id="path4187-9-5" class="cls-21" d="M371.22,104.66v.76a30.62,30.62,0,0,0,61.23,0v-.76a30.61,30.61,0,0,1-61.19,0Z"/>
      </g>
    </g>
    <path class="cls-2" d="M813,124.44c-40.41-4.57-76.84,24.78-81.37,65.57a75,75,0,0,0,1.64,25.88,76.61,76.61,0,0,0-38.88,46.7,42.73,42.73,0,0,0-56.92,21.19,43.54,43.54,0,0,0-1.83,4.72,73,73,0,0,0-103.25,11.28,74.27,74.27,0,0,0-10.72,18.32,54.16,54.16,0,0,0-30.74.32,30.24,30.24,0,0,0-42.67-22.64,47.73,47.73,0,0,0-17.61-23V198.27H376.35v75.09a47.72,47.72,0,0,0-14.54,17.21,40.25,40.25,0,0,0-4.06-.21,41,41,0,0,0-37.66,25.13,30.07,30.07,0,0,0-29.51-.58,47.53,47.53,0,0,0-54-29.35,73.08,73.08,0,0,0-119-20.94A54.19,54.19,0,0,0,84.7,249.78a91.78,91.78,0,0,0,.52-9.71c0-49.55-39.72-89.75-88.81-89.8-1.14,0-2.28,0-3.41.07V393H813Z"/>
    <g>
      <path class="cls-22" d="M389.68,265.34a.92.92,0,0,1-.82-1V217.55a.83.83,0,1,1,1.64,0v46.79A.92.92,0,0,1,389.68,265.34Z"/>
      <path class="cls-22" d="M400.87,262.2a.92.92,0,0,1-.82-1V210.41a.83.83,0,1,1,1.64,0V261.2A.92.92,0,0,1,400.87,262.2Z"/>
      <path class="cls-22" d="M412,265.34a.92.92,0,0,1-.82-1V227.55a.83.83,0,1,1,1.64,0v36.79A.92.92,0,0,1,412,265.34Z"/>
    </g>
    <rect class="cls-4" x="374" y="195.67" width="52.94" height="6.93"/>
  </g>
</svg>
